PathFileType	4	(X/Y/Z)	 1.9Hzlow3min.trc
DataRate	CameraRate	NumFrames	NumMarkers	Units	OrigDataRate	OrigDataStartFrame	OrigNumFrames
200	200	10	39	m	200	876	1000
Frame#	Time	C7			LSH			RSH			MAN			RASI			LASI			HIPR			HIPL			RPSI			LPSI			COX			RTHI1			RTHI2			RTHI3			RTHI4			RLKN			RMKN			RSHA1			RSHA2			RSHA3			RSHA4			RHEEL			RMET5			RMET1			RTOE			LTHI1			LTHI2			LTHI3			LTHI4			LLKN			LMKN			LSHA1			LSHA2			LSHA3			LSHA4			LHEEL			LMET5			LMET1			LTOE			
		X1	Y1	Z1	X2	Y2	Z2	X3	Y3	Z3	X4	Y4	Z4	X5	Y5	Z5	X6	Y6	Z6	X7	Y7	Z7	X8	Y8	Z8	X9	Y9	Z9	X10	Y10	Z10	X11	Y11	Z11	X12	Y12	Z12	X13	Y13	Z13	X14	Y14	Z14	X15	Y15	Z15	X16	Y16	Z16	X17	Y17	Z17	X18	Y18	Z18	X19	Y19	Z19	X20	Y20	Z20	X21	Y21	Z21	X22	Y22	Z22	X23	Y23	Z23	X24	Y24	Z24	X25	Y25	Z25	X26	Y26	Z26	X27	Y27	Z27	X28	Y28	Z28	X29	Y29	Z29	X30	Y30	Z30	X31	Y31	Z31	X32	Y32	Z32	X33	Y33	Z33	X34	Y34	Z34	X35	Y35	Z35	X36	Y36	Z36	X37	Y37	Z37	X38	Y38	Z38	X39	Y39	Z39	
876	4.3800	-0.267858	1.574801	-0.538300	-0.212308	1.574066	-0.719868	-0.232203	1.576703	-0.360777	-0.120217	1.541308	-0.539191	-0.097963	1.064163	-0.421671	-0.095505	1.067415	-0.655887	-0.166621	1.143296	-0.371712	-0.150488	1.133974	-0.701710	-0.270049	1.130082	-0.500412	-0.270256	1.127720	-0.568310	-0.270152	1.128127	-0.536460	-0.188547	0.890215	-0.338798	-0.177258	0.832190	-0.332034	-0.112727	0.842603	-0.335277	-0.117190	0.903244	-0.343284	-0.167746	0.568667	-0.360101	-0.145771	0.557088	-0.471809	-0.251646	0.446001	-0.331328	-0.261257	0.405251	-0.339769	-0.200910	0.397751	-0.336328	-0.195165	0.437477	-0.332134	-0.316076	0.165794	-0.414049	-0.177325	0.066697	-0.352545	-0.128746	0.075816	-0.411520	-0.108258	0.065720	-0.406614	-0.189584	0.857839	-0.738962	-0.175842	0.797413	-0.741525	-0.111907	0.806343	-0.740365	-0.116584	0.866442	-0.737377	-0.175638	0.564237	-0.712193	-0.149019	0.553055	-0.610143	-0.265142	0.430785	-0.728960	-0.275027	0.391645	-0.725541	-0.213452	0.382124	-0.734934	-0.212027	0.426376	-0.737582	-0.315751	0.159561	-0.649841	-0.190342	0.063146	-0.739401	-0.130112	0.070620	-0.683785	-0.108946	0.056610	-0.694073	
877	4.3850	-0.268049	1.576037	-0.538253	-0.212348	1.575141	-0.719761	-0.232694	1.577543	-0.360565	-0.120459	1.542570	-0.539044	-0.098267	1.065380	-0.421890	-0.095876	1.068691	-0.655914	-0.166782	1.144433	-0.371696	-0.150468	1.135417	-0.701719	-0.270326	1.131552	-0.500551	-0.270684	1.129336	-0.568463	-0.270478	1.129689	-0.536651	-0.188753	0.891482	-0.338627	-0.177426	0.833452	-0.331950	-0.112901	0.843859	-0.335544	-0.117396	0.904470	-0.343627	-0.168077	0.569928	-0.360002	-0.145937	0.558223	-0.471485	-0.252241	0.447763	-0.331375	-0.262066	0.406910	-0.339779	-0.201737	0.399202	-0.336151	-0.195893	0.438853	-0.331976	-0.316862	0.166663	-0.413952	-0.177617	0.068492	-0.352024	-0.128832	0.077948	-0.410731	-0.108232	0.068024	-0.405868	-0.189778	0.859132	-0.738897	-0.176140	0.798681	-0.741404	-0.112187	0.807503	-0.740094	-0.116776	0.867598	-0.737139	-0.175577	0.565465	-0.712035	-0.149846	0.554490	-0.609757	-0.265244	0.432300	-0.729210	-0.275249	0.393154	-0.725766	-0.213626	0.383464	-0.734702	-0.212068	0.427708	-0.737379	-0.316770	0.160604	-0.649675	-0.190877	0.065538	-0.740046	-0.130660	0.072783	-0.684500	-0.109385	0.058933	-0.694938	
878	4.3900	-0.268241	1.577024	-0.538211	-0.212383	1.575925	-0.719722	-0.233182	1.578086	-0.360291	-0.120703	1.543579	-0.538891	-0.098589	1.066367	-0.422104	-0.096282	1.069735	-0.655952	-0.167017	1.145302	-0.371692	-0.150532	1.136621	-0.701729	-0.270665	1.132719	-0.500709	-0.271174	1.130645	-0.568632	-0.270836	1.130897	-0.536829	-0.188939	0.892520	-0.338400	-0.177531	0.834471	-0.331889	-0.113016	0.844894	-0.335821	-0.117582	0.905490	-0.343968	-0.168371	0.571006	-0.359892	-0.146051	0.559151	-0.471141	-0.252870	0.449343	-0.331481	-0.262882	0.408406	-0.339816	-0.202586	0.400473	-0.335969	-0.196649	0.440067	-0.331830	-0.317710	0.167419	-0.413815	-0.178057	0.070024	-0.351564	-0.129107	0.079779	-0.410093	-0.108457	0.069865	-0.405203	-0.189900	0.860171	-0.738878	-0.176300	0.799721	-0.741348	-0.112342	0.808490	-0.739857	-0.116903	0.868577	-0.736917	-0.175386	0.566475	-0.711934	-0.150521	0.555683	-0.609470	-0.265390	0.433645	-0.729389	-0.275518	0.394495	-0.725921	-0.213875	0.384607	-0.734498	-0.212170	0.428838	-0.737199	-0.317959	0.161586	-0.649565	-0.191631	0.067464	-0.740383	-0.131457	0.074629	-0.684922	-0.110108	0.060902	-0.695430	
879	4.3950	-0.268426	1.577770	-0.538178	-0.212413	1.576432	-0.719752	-0.233650	1.578337	-0.359959	-0.120947	1.544341	-0.538736	-0.098933	1.067130	-0.422305	-0.096709	1.070559	-0.655998	-0.167322	1.145916	-0.371704	-0.150688	1.137586	-0.701733	-0.271058	1.133584	-0.500880	-0.271727	1.131677	-0.568797	-0.271310	1.131890	-0.537053	-0.189091	0.893318	-0.338216	-0.177582	0.835255	-0.331856	-0.113092	0.845720	-0.336106	-0.117744	0.906297	-0.344309	-0.168639	0.571902	-0.359763	-0.146146	0.559879	-0.470799	-0.253532	0.450701	-0.331615	-0.263690	0.409697	-0.339872	-0.203439	0.401548	-0.335785	-0.197421	0.441105	-0.331699	-0.318620	0.168057	-0.413638	-0.178637	0.071271	-0.351173	-0.129581	0.081273	-0.409569	-0.108891	0.071414	-0.404651	-0.189955	0.860964	-0.738908	-0.176332	0.800533	-0.741347	-0.112382	0.809307	-0.739647	-0.116972	0.869386	-0.736713	-0.175137	0.567285	-0.711894	-0.151059	0.556639	-0.609281	-0.265617	0.434813	-0.729511	-0.275863	0.395655	-0.726020	-0.214225	0.385564	-0.734340	-0.212366	0.429781	-0.737053	-0.319287	0.162486	-0.649524	-0.192560	0.068982	-0.740450	-0.132476	0.076147	-0.684999	-0.111076	0.062518	-0.695551	
880	4.4000	-0.268599	1.578282	-0.538154	-0.212417	1.576661	-0.719836	-0.234095	1.578305	-0.359591	-0.121196	1.544855	-0.538581	-0.099298	1.067670	-0.422492	-0.097149	1.071169	-0.656048	-0.167699	1.146285	-0.371733	-0.150943	1.138304	-0.701735	-0.271500	1.134159	-0.501055	-0.272220	1.132334	-0.568973	-0.271868	1.132646	-0.537298	-0.189218	0.893889	-0.338079	-0.177601	0.835814	-0.331854	-0.113130	0.846327	-0.336399	-0.117889	0.906901	-0.344640	-0.168885	0.572609	-0.359617	-0.146252	0.560415	-0.470483	-0.254227	0.451773	-0.331779	-0.264477	0.410766	-0.339923	-0.204286	0.402412	-0.335599	-0.198192	0.441959	-0.331593	-0.319588	0.168574	-0.413432	-0.179360	0.072246	-0.350854	-0.130254	0.082410	-0.409155	-0.109537	0.072590	-0.404216	-0.189950	0.861527	-0.738980	-0.176252	0.801120	-0.741390	-0.112328	0.809954	-0.739450	-0.116989	0.870022	-0.736525	-0.174878	0.567914	-0.711912	-0.151474	0.557368	-0.609192	-0.265947	0.435762	-0.729562	-0.276311	0.396624	-0.726074	-0.214696	0.386337	-0.734238	-0.212685	0.430531	-0.736952	-0.320755	0.163268	-0.649530	-0.193618	0.070151	-0.740299	-0.133674	0.077379	-0.684734	-0.112228	0.063882	-0.695340	
881	4.4050	-0.268757	1.578570	-0.538140	-0.212401	1.576620	-0.719967	-0.234504	1.577986	-0.359175	-0.121440	1.545121	-0.538428	-0.099680	1.067989	-0.422664	-0.097606	1.071573	-0.656100	-0.168137	1.146419	-0.371776	-0.151301	1.138779	-0.701733	-0.271992	1.134447	-0.501226	-0.272756	1.132701	-0.569135	-0.272449	1.133074	-0.537513	-0.189325	0.894241	-0.337991	-0.177600	0.836157	-0.331858	-0.113154	0.846725	-0.336680	-0.118020	0.907299	-0.344956	-0.169110	0.573112	-0.359454	-0.146383	0.560749	-0.470209	-0.254938	0.452517	-0.331964	-0.265229	0.411575	-0.339961	-0.205110	0.403043	-0.335415	-0.198934	0.442629	-0.331526	-0.320613	0.168989	-0.413217	-0.180230	0.072956	-0.350566	-0.131113	0.083201	-0.408862	-0.110323	0.073488	-0.404004	-0.189895	0.861863	-0.739089	-0.176081	0.801488	-0.741462	-0.112194	0.810425	-0.739259	-0.116969	0.870496	-0.736351	-0.174638	0.568364	-0.711987	-0.151772	0.557869	-0.609198	-0.266387	0.436484	-0.729552	-0.276885	0.397391	-0.726089	-0.215298	0.386905	-0.734189	-0.213133	0.431077	-0.736898	-0.322352	0.163889	-0.649572	-0.194735	0.071039	-0.739961	-0.135019	0.078379	-0.684185	-0.113513	0.065005	-0.694770	
882	4.4100	-0.268897	1.578634	-0.538135	-0.212364	1.576310	-0.720132	-0.234860	1.577394	-0.358720	-0.121676	1.545148	-0.538277	-0.100078	1.068091	-0.422820	-0.098076	1.071773	-0.656156	-0.168632	1.146331	-0.371830	-0.151754	1.139010	-0.701730	-0.272523	1.134458	-0.501374	-0.273330	1.132775	-0.569273	-0.273043	1.133177	-0.537690	-0.189420	0.894371	-0.337949	-0.177593	0.836285	-0.331868	-0.113173	0.846920	-0.336944	-0.118145	0.907484	-0.345248	-0.169312	0.573403	-0.359269	-0.146538	0.560882	-0.469986	-0.255629	0.452936	-0.332081	-0.265925	0.412112	-0.339969	-0.205900	0.403431	-0.335235	-0.199647	0.443081	-0.331467	-0.321705	0.169311	-0.413031	-0.181270	0.073409	-0.350307	-0.132165	0.083630	-0.408631	-0.111414	0.073859	-0.403721	-0.189802	0.861976	-0.739225	-0.175841	0.801641	-0.741552	-0.111999	0.810720	-0.739066	-0.116922	0.870789	-0.736182	-0.174438	0.568630	-0.712116	-0.151959	0.558153	-0.609297	-0.266934	0.436980	-0.729492	-0.277581	0.397958	-0.726077	-0.216029	0.387258	-0.734182	-0.213709	0.431407	-0.736894	-0.324066	0.164318	-0.649652	-0.195874	0.071694	-0.739453	-0.136472	0.079177	-0.683409	-0.114886	0.065920	-0.693939	
883	4.4150	-0.269019	1.578487	-0.538133	-0.212322	1.575740	-0.720328	-0.235159	1.576546	-0.358221	-0.121902	1.544932	-0.538130	-0.100505	1.067981	-0.422967	-0.098560	1.071768	-0.656214	-0.169169	1.146024	-0.371892	-0.152297	1.138990	-0.701725	-0.273084	1.134194	-0.501495	-0.273936	1.132575	-0.569376	-0.273680	1.133000	-0.537844	-0.189515	0.894283	-0.337959	-0.177592	0.836199	-0.331882	-0.113202	0.846910	-0.337185	-0.118273	0.907462	-0.345514	-0.169478	0.573466	-0.359069	-0.146709	0.560815	-0.469816	-0.256310	0.453051	-0.332178	-0.266591	0.412366	-0.339958	-0.206643	0.403562	-0.335065	-0.200316	0.443251	-0.331398	-0.322862	0.169537	-0.412883	-0.182496	0.073563	-0.350069	-0.133443	0.083670	-0.408412	-0.112683	0.073977	-0.403527	-0.189684	0.861878	-0.739375	-0.175559	0.801582	-0.741649	-0.111766	0.810837	-0.738872	-0.116859	0.870894	-0.736011	-0.174278	0.568703	-0.712295	-0.152045	0.558216	-0.609484	-0.267578	0.437260	-0.729428	-0.278380	0.398314	-0.726047	-0.216879	0.387390	-0.734219	-0.214389	0.431513	-0.736938	-0.325875	0.164528	-0.649752	-0.197043	0.072119	-0.738835	-0.138016	0.079762	-0.682480	-0.116330	0.066626	-0.692918	
884	4.4200	-0.269122	1.578129	-0.538131	-0.212283	1.574906	-0.720547	-0.235401	1.575456	-0.357686	-0.122110	1.544469	-0.537984	-0.100957	1.067656	-0.423106	-0.099061	1.071554	-0.656276	-0.169739	1.145505	-0.371960	-0.152920	1.138719	-0.701724	-0.273683	1.133667	-0.501583	-0.274569	1.132092	-0.569446	-0.274324	1.132506	-0.537940	-0.189626	0.893986	-0.337974	-0.177607	0.835896	-0.331897	-0.113242	0.846690	-0.337396	-0.118416	0.907234	-0.345745	-0.169593	0.573286	-0.358857	-0.146893	0.560538	-0.469691	-0.256941	0.452906	-0.332230	-0.267220	0.412349	-0.339915	-0.207334	0.403434	-0.334909	-0.200927	0.443156	-0.331318	-0.324078	0.169674	-0.412793	-0.183947	0.073450	-0.349835	-0.134926	0.083367	-0.408253	-0.114193	0.073662	-0.403366	-0.189557	0.861574	-0.739522	-0.175255	0.801320	-0.741746	-0.111510	0.810770	-0.738686	-0.116791	0.870812	-0.735840	-0.174146	0.568567	-0.712515	-0.152040	0.558054	-0.609745	-0.268284	0.437320	-0.729364	-0.279260	0.398457	-0.726002	-0.217825	0.387282	-0.734286	-0.215148	0.431386	-0.737020	-0.327769	0.164517	-0.649861	-0.198267	0.072311	-0.738160	-0.139635	0.080124	-0.681452	-0.117840	0.067118	-0.691802	
885	4.4250	-0.269205	1.577558	-0.538128	-0.212254	1.573815	-0.720783	-0.235573	1.574134	-0.357099	-0.122306	1.543761	-0.537843	-0.101433	1.067115	-0.423239	-0.099580	1.071126	-0.656346	-0.170331	1.144777	-0.372030	-0.153610	1.138201	-0.701729	-0.274310	1.132875	-0.501634	-0.275116	1.131249	-0.569528	-0.274988	1.131713	-0.537991	-0.189760	0.893466	-0.337995	-0.177639	0.835379	-0.331914	-0.113309	0.846263	-0.337567	-0.118576	0.906796	-0.345935	-0.169645	0.572859	-0.358633	-0.147071	0.560036	-0.469597	-0.257492	0.452560	-0.332212	-0.267802	0.412059	-0.339850	-0.207963	0.403046	-0.334770	-0.201465	0.442774	-0.331210	-0.325364	0.169723	-0.412763	-0.185625	0.073068	-0.349584	-0.136630	0.082693	-0.408110	-0.115957	0.072984	-0.403203	-0.189442	0.861064	-0.739653	-0.174949	0.800855	-0.741838	-0.111250	0.810512	-0.738514	-0.116732	0.870537	-0.735673	-0.174033	0.568196	-0.712773	-0.151953	0.557659	-0.610069	-0.269028	0.437167	-0.729320	-0.280187	0.398384	-0.725954	-0.218824	0.386927	-0.734376	-0.215942	0.431014	-0.737135	-0.329717	0.164299	-0.649988	-0.199575	0.072248	-0.737460	-0.141340	0.080242	-0.680426	-0.119435	0.067333	-0.690625	
